<?xml version="1.0" encoding="UTF-8" standalone="no"?>
<svg
   xmlns:dc="http://purl.org/dc/elements/1.1/"
   xmlns:cc="http://creativecommons.org/ns#"
   xmlns:rdf="http://www.w3.org/1999/02/22-rdf-syntax-ns#"
   xmlns:svg="http://www.w3.org/2000/svg"
   xmlns="http://www.w3.org/2000/svg"
   xmlns:sodipodi="http://sodipodi.sourceforge.net/DTD/sodipodi-0.dtd"
   xmlns:inkscape="http://www.inkscape.org/namespaces/inkscape"
   width="35496.312"
   height="50067.578"
   viewBox="0 0 9.3917328 13.247046"
   version="1.1"
   id="svg4"
   sodipodi:docname="2.svg"
   inkscape:version="0.92.2 (5c3e80d, 2017-08-06)">
  <metadata
     id="metadata10">
    <rdf:RDF>
      <cc:Work
         rdf:about="">
        <dc:format>image/svg+xml</dc:format>
        <dc:type
           rdf:resource="http://purl.org/dc/dcmitype/StillImage" />
        <dc:title></dc:title>
      </cc:Work>
    </rdf:RDF>
  </metadata>
  <defs
     id="defs8" />
  <sodipodi:namedview
     pagecolor="#ffffff"
     bordercolor="#666666"
     borderopacity="1"
     objecttolerance="10"
     gridtolerance="10"
     guidetolerance="10"
     inkscape:pageopacity="0"
     inkscape:pageshadow="2"
     inkscape:window-width="1920"
     inkscape:window-height="1001"
     id="namedview6"
     showgrid="false"
     fit-margin-top="0"
     fit-margin-left="0"
     fit-margin-right="0"
     fit-margin-bottom="0"
     inkscape:zoom="0.01"
     inkscape:cx="72430.678"
     inkscape:cy="11436.275"
     inkscape:window-x="-9"
     inkscape:window-y="-9"
     inkscape:window-maximized="1"
     inkscape:current-layer="svg4" />
  <path
     d="m 0.40223277,13.0015 -0.116,-0.253 3.81700003,-4.46 q 0.507,-0.605 0.935,-1.13 0.448,-0.546 0.76,-1.053 0.33,-0.506 0.506,-0.993 0.195,-0.488 0.195,-1.014 0,-1.032 -0.662,-1.578 -0.66,-0.545 -1.89,-0.545 -0.934,0 -1.576,0.214 -0.643,0.214 -1.247,0.487 -0.15600003,-0.39 -0.31200003,-0.8 -0.136,-0.406 -0.176,-0.833 0.68200003,-0.29200001 1.50000003,-0.54600001 0.837,-0.254 1.948,-0.254 0.993,0 1.81,0.233 0.82,0.214 1.404,0.66200001 0.604,0.448 0.915,1.15 0.33,0.68 0.33,1.616 0,1.306 -0.72,2.534 -0.72,1.227 -2.045,2.727 l -1.87,2.124 h 5.162 q 0.04,0.214 0.06,0.428 0.018,0.215 0.018,0.448 0,0.215 -0.02,0.43 -0.02,0.213 -0.058,0.408 z"
     style="font-size:19.47900009px;font-family:Aller;-inkscape-font-specification:'Aller, Normal';font-variant-ligatures:normal;font-variant-caps:normal;font-variant-numeric:normal;font-feature-settings:normal;text-align:start;letter-spacing:0;word-spacing:0;fill:none;stroke:#ff1b1c;stroke-width:0.48699999;stroke-opacity:1"
     font-size="19.479"
     letter-spacing="0"
     word-spacing="0"
     id="path2"
     inkscape:connector-curvature="0" />
</svg>
