<?xml version="1.0" encoding="UTF-8" standalone="no"?>
<svg
   xmlns:dc="http://purl.org/dc/elements/1.1/"
   xmlns:cc="http://creativecommons.org/ns#"
   xmlns:rdf="http://www.w3.org/1999/02/22-rdf-syntax-ns#"
   xmlns:svg="http://www.w3.org/2000/svg"
   xmlns="http://www.w3.org/2000/svg"
   xmlns:sodipodi="http://sodipodi.sourceforge.net/DTD/sodipodi-0.dtd"
   xmlns:inkscape="http://www.inkscape.org/namespaces/inkscape"
   width="35944.738"
   height="54693.543"
   viewBox="0 0 9.5103789 14.471"
   version="1.1"
   id="svg4"
   sodipodi:docname="3.svg"
   inkscape:version="0.92.2 (5c3e80d, 2017-08-06)">
  <metadata
     id="metadata10">
    <rdf:RDF>
      <cc:Work
         rdf:about="">
        <dc:format>image/svg+xml</dc:format>
        <dc:type
           rdf:resource="http://purl.org/dc/dcmitype/StillImage" />
        <dc:title></dc:title>
      </cc:Work>
    </rdf:RDF>
  </metadata>
  <defs
     id="defs8" />
  <sodipodi:namedview
     pagecolor="#ffffff"
     bordercolor="#666666"
     borderopacity="1"
     objecttolerance="10"
     gridtolerance="10"
     guidetolerance="10"
     inkscape:pageopacity="0"
     inkscape:pageshadow="2"
     inkscape:window-width="1920"
     inkscape:window-height="1001"
     id="namedview6"
     showgrid="false"
     fit-margin-top="0"
     fit-margin-left="0"
     fit-margin-right="0"
     fit-margin-bottom="0"
     inkscape:zoom="0.01"
     inkscape:cx="72615.204"
     inkscape:cy="25743.169"
     inkscape:window-x="-9"
     inkscape:window-y="-9"
     inkscape:window-maximized="1"
     inkscape:current-layer="svg4" />
  <path
     d="m 3.733879,12.5135 q 0.74,0 1.383,-0.155 0.663,-0.156 1.13,-0.506 0.487,-0.352 0.76,-0.898 0.292,-0.564 0.292,-1.363 0,-1.21 -0.8,-1.793 -0.797,-0.584 -2.083,-0.584 -0.39,0 -0.8,0.038 -0.39,0.02 -0.78,0.118 l -0.155,-0.272 3.253,-5.123 H 0.92887901 q -0.078,-0.389 -0.078,-0.837 0,-0.21400001 0.02,-0.44800001 0.02,-0.234 0.058,-0.447 H 8.818879 l 0.136,0.233 -3.546,5.39500001 q 0.06,-0.02 0.137,-0.02 h 0.155 q 0.915,0 1.577,0.332 0.682,0.312 1.11,0.838 0.45,0.506 0.663,1.15 0.216,0.622 0.216,1.245 0,1.246 -0.45,2.162 -0.427,0.896 -1.167,1.48 -0.74,0.604 -1.734,0.877 -0.995,0.292 -2.124,0.292 -0.974,0 -1.83,-0.156 -0.858,-0.156 -1.69499999,-0.488 0.058,-0.428 0.214,-0.837 0.176,-0.41 0.39,-0.8 0.62299999,0.254 1.30499999,0.41 0.68,0.156 1.557,0.156 z"
     style="font-size:19.47900009px;font-family:Aller;-inkscape-font-specification:'Aller, Normal';font-variant-ligatures:normal;font-variant-caps:normal;font-variant-numeric:normal;font-feature-settings:normal;text-align:start;letter-spacing:0;word-spacing:0;fill:none;stroke:#ff1b1c;stroke-width:0.48699999;stroke-opacity:1"
     font-size="19.479"
     letter-spacing="0"
     word-spacing="0"
     id="path2"
     inkscape:connector-curvature="0" />
</svg>
